<svg width="220" height="40" viewBox="0 0 220 40" fill="none" xmlns="http://www.w3.org/2000/svg">
<path d="M64.5198 18.398C64.5198 19.4612 64.2669 20.433 63.7609 21.3134C63.2719 22.1773 62.5214 22.875 61.5095 23.4066C60.5145 23.9215 59.2918 24.179 57.8415 24.179H55.3876V30.1096H50.4294V12.5422H57.8415C59.2749 12.5422 60.4892 12.7914 61.4842 13.2897C62.4961 13.7881 63.255 14.4775 63.7609 15.358C64.2669 16.2384 64.5198 17.2517 64.5198 18.398ZM57.3608 20.2918C58.7606 20.2918 59.4605 19.6605 59.4605 18.398C59.4605 17.1188 58.7606 16.4793 57.3608 16.4793H55.3876V20.2918H57.3608Z" fill="#1E1C34"/>
<path d="M78.5531 27.244H72.2289L71.2676 30.1096H66.0564L72.5578 12.5422H78.2749L84.7509 30.1096H79.5144L78.5531 27.244ZM77.3136 23.5062L75.391 17.8249L73.4937 23.5062H77.3136Z" fill="#1E1C34"/>
<path d="M100.559 12.5422V16.4294H95.8027V30.1096H90.8445V16.4294H86.1393V12.5422H100.559Z" fill="#1E1C34"/>
<path d="M108.11 12.5422V30.1096H103.152V12.5422H108.11Z" fill="#1E1C34"/>
<path d="M120.243 30.284C118.573 30.284 117.039 29.9019 115.639 29.1378C114.239 28.357 113.126 27.2855 112.3 25.9233C111.49 24.5445 111.085 22.9913 111.085 21.2636C111.085 19.5359 111.49 17.991 112.3 16.6288C113.126 15.25 114.239 14.1785 115.639 13.4143C117.039 12.6502 118.573 12.2681 120.243 12.2681C121.929 12.2681 123.464 12.6502 124.847 13.4143C126.247 14.1785 127.351 15.25 128.161 16.6288C128.97 17.991 129.375 19.5359 129.375 21.2636C129.375 22.9913 128.97 24.5445 128.161 25.9233C127.351 27.2855 126.247 28.357 124.847 29.1378C123.447 29.9019 121.913 30.284 120.243 30.284ZM120.243 25.7489C121.508 25.7489 122.503 25.3419 123.228 24.5279C123.97 23.7139 124.341 22.6258 124.341 21.2636C124.341 19.8682 123.97 18.7718 123.228 17.9744C122.503 17.1604 121.508 16.7534 120.243 16.7534C118.961 16.7534 117.958 17.1604 117.233 17.9744C116.507 18.7718 116.145 19.8682 116.145 21.2636C116.145 22.6424 116.507 23.7388 117.233 24.5528C117.958 25.3502 118.961 25.7489 120.243 25.7489Z" fill="#1E1C34"/>
<path d="M152.77 12.9907V30.1096H151.632V15.333L144.954 30.1096H144.043L137.339 15.333V30.1096H136.201V12.9907H137.415L144.498 28.6394L151.581 12.9907H152.77Z" fill="#1E1C34"/>
<path d="M165.629 30.3089C163.993 30.3089 162.518 29.9351 161.202 29.1876C159.887 28.4234 158.858 27.3602 158.116 25.9981C157.374 24.6359 157.003 23.0992 157.003 21.3882C157.003 19.6605 157.374 18.1239 158.116 16.7783C158.858 15.4161 159.887 14.3612 161.202 13.6137C162.518 12.8495 163.993 12.4674 165.629 12.4674C167.265 12.4674 168.741 12.8495 170.056 13.6137C171.372 14.3612 172.4 15.4161 173.142 16.7783C173.884 18.1239 174.255 19.6605 174.255 21.3882C174.255 23.0992 173.884 24.6359 173.142 25.9981C172.4 27.3602 171.372 28.4234 170.056 29.1876C168.741 29.9351 167.265 30.3089 165.629 30.3089ZM165.629 29.3122C167.029 29.3122 168.294 28.9882 169.424 28.3404C170.554 27.6925 171.439 26.7705 172.08 25.5744C172.738 24.3784 173.066 22.9829 173.066 21.3882C173.066 19.7768 172.738 18.3731 172.08 17.177C171.439 15.9809 170.554 15.0589 169.424 14.4111C168.294 13.7632 167.029 13.4392 165.629 13.4392C164.229 13.4392 162.965 13.7632 161.835 14.4111C160.705 15.0589 159.811 15.9809 159.153 17.177C158.495 18.3731 158.167 19.7768 158.167 21.3882C158.167 22.9829 158.495 24.3784 159.153 25.5744C159.811 26.7705 160.705 27.6925 161.835 28.3404C162.965 28.9882 164.229 29.3122 165.629 29.3122Z" fill="#1E1C34"/>
<path d="M186.121 21.0642C187.149 21.247 188.01 21.7453 188.701 22.5593C189.409 23.3733 189.763 24.3285 189.763 25.4249C189.763 26.322 189.544 27.1277 189.106 27.842C188.684 28.5397 188.043 29.0962 187.183 29.5115C186.34 29.9102 185.311 30.1096 184.097 30.1096H178.456V12.6169H183.996C185.767 12.6169 187.099 13.0239 187.993 13.8379C188.903 14.6353 189.359 15.6736 189.359 16.9527C189.359 18.0657 189.055 18.9711 188.448 19.6688C187.841 20.3499 187.065 20.8151 186.121 21.0642ZM179.594 20.5659H184.046C185.379 20.5659 186.399 20.2585 187.107 19.6439C187.832 19.0126 188.195 18.1488 188.195 17.0524C188.195 15.9892 187.841 15.1503 187.133 14.5357C186.424 13.921 185.353 13.6137 183.92 13.6137H179.594V20.5659ZM184.021 29.1378C185.455 29.1378 186.576 28.8055 187.386 28.141C188.212 27.4599 188.625 26.5296 188.625 25.3502C188.625 24.1873 188.203 23.2653 187.36 22.5842C186.534 21.8865 185.396 21.5377 183.945 21.5377H179.594V29.1378H184.021Z" fill="#1E1C34"/>
<path d="M195.003 12.6169V30.1096H193.864V12.6169H195.003Z" fill="#1E1C34"/>
<path d="M201.073 29.1627H207.675V30.1096H199.934V12.6169H201.073V29.1627Z" fill="#1E1C34"/>
<path d="M212.158 13.5638V20.8649H219.241V21.8118H212.158V29.1627H220V30.1096H211.02V12.6169H220V13.5638H212.158Z" fill="#1E1C34"/>
<path d="M0 7.78695C0 3.48634 3.53932 0 7.9053 0H32.4117C36.7777 0 40.317 3.48634 40.317 7.78696V31.9265C40.317 36.2271 36.7777 39.7135 32.4117 39.7135H7.9053C3.53932 39.7135 0 36.2271 0 31.9265V7.78695Z" fill="#1CBD6B"/>
<path d="M29.6049 8.41499C29.9494 9.71423 29.7762 10.8419 29.4 11.9191C28.4607 14.3036 27.5215 16.6881 26.5926 19.1178C26.4118 19.5837 26.1838 19.6333 25.8071 19.2415C23.9753 17.508 22.0979 15.7844 20.2661 14.0509C17.4014 11.3577 17.9814 7.8193 19.9768 5.86814C21.5429 4.34225 23.4271 3.78965 25.5689 4.36565C27.7211 4.98679 29.06 6.44853 29.6049 8.41499ZM23.3264 6.70234C21.5938 7.07978 20.5808 8.72213 20.9725 10.4376C21.354 12.1079 23.0871 13.1995 24.7638 12.7868C26.4509 12.4193 27.5344 10.6668 27.1177 9.05157C26.7362 7.38125 25.0135 6.33484 23.3264 6.70234Z" fill="white"/>
<path d="M25.6365 21.6345L17.3822 20.0523L17.5283 25.4808L26.9032 27.1525L25.6365 21.6345Z" fill="#F5F06C"/>
<path d="M15.2058 19.6658L8.44836 18.3311L9.7866 24.1618L15.3622 25.1359L15.2058 19.6658Z" fill="white"/>
<path d="M27.9209 22.0545L29.1746 27.5197L33.1083 28.2312C33.2527 27.8206 33.3414 27.3747 33.2377 26.923L32.326 22.9483L27.9209 22.0545Z" fill="white"/>
<path d="M15.4008 27.5189L10.3256 26.6273L11.4867 31.6873C11.7562 32.862 12.9291 33.6036 14.1118 33.3472L15.5674 33.0316L15.4008 27.5189Z" fill="white"/>
<path d="M23.2109 18.6819C21.9342 17.4884 20.6016 16.2596 19.3145 15.0209C18.2158 13.9786 17.5057 12.7571 17.1595 11.4567L17.3141 17.5415L23.2109 18.6819Z" fill="white"/>
<path d="M15.1923 17.1833L15.0142 10.5692L9.22401 11.8242C8.03861 12.0811 7.29937 13.2393 7.56951 14.4162L7.87082 15.729L15.1923 17.1833Z" fill="white"/>
<path d="M28.264 18.4478L27.8453 19.5341L31.7422 20.3006L30.1887 13.5269C29.5657 15.179 28.8973 16.8409 28.264 18.4478Z" fill="white"/>
<path d="M29.4573 29.9515L17.569 27.8604L17.6756 32.5094L29.4573 29.9515Z" fill="white"/>
</svg>
